<?xml version="1.0" encoding="UTF-8"?>
<!-- ===================================================== -->
<!-- Frame Library                                         -->
<!-- Asset   : codex-ornaments.svg                         -->
<!-- Version : 1.0.0                                       -->
<!-- Status  : FROZEN                                      -->
<!-- Order Design System                                   -->
<!-- ===================================================== -->
<svg xmlns="http://www.w3.org/2000/svg" viewBox="0 0 400 600" role="img" aria-labelledby="codex-ornaments__title codex-ornaments__desc">
  <title id="codex-ornaments__title">Codex Ornaments</title>
  <desc id="codex-ornaments__desc">
    Decorative ornamental elements for Codex Vaticinarum.
    Optional visual enhancement that composes with frame and details.
  </desc>
  <defs>
    <g id="codex-ornaments__corner-flourish">
      <path d="M0 0 L0 12 C0 12 4 12 8 8 C12 4 12 0 12 0"/>
      <circle cx="4" cy="4" r="1.5"/>
      <circle cx="8" cy="8" r="1"/>
    </g>
    <g id="codex-ornaments__side-ornament">
      <path d="M0 0 L0 16"/>
      <circle cx="0" cy="8" r="2"/>
      <circle cx="0" cy="4" r="1"/>
      <circle cx="0" cy="12" r="1"/>
    </g>
    <g id="codex-ornaments__diamond-accent">
      <path d="M0 4 L4 0 L8 4 L4 8 Z"/>
      <circle cx="4" cy="4" r="1.5"/>
    </g>
  </defs>
  <style>
    .codex-ornaments__primary {
      fill: none;
      stroke: currentColor;
      stroke-width: 1;
      stroke-linecap: round;
      stroke-linejoin: round;
      vector-effect: non-scaling-stroke;
    }

    .codex-ornaments__secondary {
      fill: none;
      stroke: currentColor;
      stroke-width: .5;
      stroke-linecap: round;
      stroke-linejoin: round;
      vector-effect: non-scaling-stroke;
    }
  </style>
  <g id="codex-ornaments__corners-primary" class="codex-ornaments__primary">
    <use href="#codex-ornaments__corner-flourish" x="14" y="14"/>
    <use href="#codex-ornaments__corner-flourish" x="372" y="14" transform="rotate(90 386 14)"/>
    <use href="#codex-ornaments__corner-flourish" x="372" y="572" transform="rotate(180 386 586)"/>
    <use href="#codex-ornaments__corner-flourish" x="14" y="572" transform="rotate(-90 14 586)"/>
  </g>
  <g id="codex-ornaments__corners-secondary" class="codex-ornaments__secondary">
    <use href="#codex-ornaments__corner-flourish" transform="translate(28 28) scale(.7)"/>
    <use href="#codex-ornaments__corner-flourish" transform="translate(358 28) rotate(90 14 0) scale(.7)"/>
    <use href="#codex-ornaments__corner-flourish" transform="translate(358 558) rotate(180 14 14) scale(.7)"/>
    <use href="#codex-ornaments__corner-flourish" transform="translate(28 558) rotate(-90 0 14) scale(.7)"/>
  </g>
  <g id="codex-ornaments__side" class="codex-ornaments__primary">
    <use href="#codex-ornaments__side-ornament" x="10" y="280" transform="rotate(-90 10 288)"/>
    <use href="#codex-ornaments__side-ornament" x="390" y="280" transform="rotate(90 390 288)"/>
  </g>
  <g id="codex-ornaments__header" class="codex-ornaments__secondary">
    <use href="#codex-ornaments__diamond-accent" x="190" y="20"/>
    <use href="#codex-ornaments__diamond-accent" x="190" y="70"/>
  </g>
  <g id="codex-ornaments__sigil" class="codex-ornaments__secondary">
    <circle cx="200" cy="140" r="48"/>
    <circle cx="200" cy="140" r="52" stroke-dasharray="2 4"/>
  </g>
  <g id="codex-ornaments__footer" class="codex-ornaments__primary">
    <use href="#codex-ornaments__diamond-accent" x="190" y="575"/>
  </g>
</svg>