<?xml version="1.0" encoding="UTF-8"?>
<!-- ===================================================== -->
<!-- Artifact Library                                      -->
<!-- Asset   : artifact-frame.svg                          -->
<!-- Version : 1.0.0                                       -->
<!-- Status  : Frozen                                      -->
<!-- Order Design System                                   -->
<!-- ===================================================== -->
<svg xmlns="http://www.w3.org/2000/svg" viewBox="0 0 1000 1000" fill="none">
  <title>Artifact Frame</title>
  <desc>Primary structural frame used by every artifact of The Order.</desc>
  <defs>
    <style>
      .artifact {
        fill: none;
      }

      .frame {
        fill: none;
        stroke: currentColor;
        stroke-width: 18;
        stroke-linecap: round;
        stroke-linejoin: round;
      }

      .frame-secondary {
        fill: none;
        stroke: currentColor;
        stroke-width: 8;
        opacity: .45;
        stroke-linecap: round;
        stroke-linejoin: round;
      }

      .connector {
        fill: none;
        stroke: currentColor;
        stroke-width: 6;
        stroke-linecap: round;
        stroke-linejoin: round;
      }

      .accent {
        fill: none;
        stroke: currentColor;
        stroke-width: 6;
        stroke-linecap: round;
        stroke-linejoin: round;
        opacity: .70;
      }
    </style>
  </defs>
  <g class="artifact">
    <path class="frame" d="M140 80 L860 80 L920 140 L920 860 L860 920 L140 920 L80 860 L80 140 Z"/>
    <path class="frame-secondary" d="M165 120 L835 120 L880 165 L880 835 L835 880 L165 880 L120 835 L120 165 Z"/>
    <path class="accent" d="M140 80 L140 130"/>
    <path class="accent" d="M140 80 L190 80"/>
    <path class="accent" d="M860 80 L810 80"/>
    <path class="accent" d="M860 80 L860 130"/>
    <path class="accent" d="M860 920 L810 920"/>
    <path class="accent" d="M860 920 L860 870"/>
    <path class="accent" d="M140 920 L190 920"/>
    <path class="accent" d="M140 920 L140 870"/>
    <path class="connector" d="M500 80 L500 120"/>
    <path class="connector" d="M490 100 L500 90 L510 100 L500 110 Z"/>
    <path class="connector" d="M920 500 L880 500"/>
    <path class="connector" d="M900 490 L910 500 L900 510 L890 500 Z"/>
    <path class="connector" d="M500 920 L500 880"/>
    <path class="connector" d="M490 900 L500 890 L510 900 L500 910 Z"/>
    <path class="connector" d="M80 500 L120 500"/>
    <path class="connector" d="M100 490 L110 500 L100 510 L90 500 Z"/>
    <path class="accent" d="M315 100 L395 100"/>
    <path class="accent" d="M605 100 L685 100"/>
    <path class="accent" d="M315 900 L395 900"/>
    <path class="accent" d="M605 900 L685 900"/>
    <path class="accent" d="M100 315 L100 395"/>
    <path class="accent" d="M100 605 L100 685"/>
    <path class="accent" d="M900 315 L900 395"/>
    <path class="accent" d="M900 605 L900 685"/>
  </g>
</svg>