<?xml version="1.0" encoding="UTF-8"?>
<!-- ===================================================== -->
<!-- Artifact Library                                      -->
<!-- Asset   : artifact-core.svg                           -->
<!-- Version : 1.0.0                                       -->
<!-- Status  : Construction                                -->
<!-- Order Design System                                   -->
<!-- ===================================================== -->
<svg xmlns="http://www.w3.org/2000/svg" viewBox="0 0 1000 1000" fill="none">
  <title>Artifact Core</title>
  <desc>Primary containment mechanism responsible for stabilizing the Primordial Prism.</desc>
  <defs>
    <style>
      .artifact {
        fill: none;
      }

      .containment-ring {
        fill: none;
        stroke: currentColor;
        stroke-width: 12;
        stroke-linecap: round;
        stroke-linejoin: round;
      }

      .inner-ring {
        fill: none;
        stroke: currentColor;
        stroke-width: 6;
        opacity: .55;
        stroke-linecap: round;
        stroke-linejoin: round;
      }

      .brace {
        fill: none;
        stroke: currentColor;
        stroke-width: 6;
        stroke-linecap: round;
        stroke-linejoin: round;
      }

      .anchor {
        fill: none;
        stroke: currentColor;
        stroke-width: 5;
        stroke-linecap: round;
        stroke-linejoin: round;
      }
    </style>
  </defs>
  <g class="artifact">
    <circle class="containment-ring" cx="500" cy="500" r="220"/>
    <circle class="inner-ring" cx="500" cy="500" r="170"/>
    <path class="brace" d="M394 394 L606 606"/>
    <path class="brace" d="M606 394 L394 606"/>
    <path class="brace" d="M500 330 L500 400"/>
    <path class="brace" d="M500 600 L500 670"/>
    <path class="brace" d="M330 500 L400 500"/>
    <path class="brace" d="M600 500 L670 500"/>
    <path class="anchor" d="M500 225 L512 237 L500 249 L488 237 Z"/>
    <path class="anchor" d="M694 306 L706 318 L694 330 L682 318 Z"/>
    <path class="anchor" d="M775 500 L787 512 L775 524 L763 512 Z"/>
    <path class="anchor" d="M694 694 L706 706 L694 718 L682 706 Z"/>
    <path class="anchor" d="M500 775 L512 787 L500 799 L488 787 Z"/>
    <path class="anchor" d="M306 694 L318 706 L306 718 L294 706 Z"/>
    <path class="anchor" d="M225 500 L237 512 L225 524 L213 512 Z"/>
    <path class="anchor" d="M306 306 L318 318 L306 330 L294 318 Z"/>
  </g>
</svg>