<?xml version="1.0" encoding="UTF-8"?>
<!-- ===================================================== -->
<!-- Artifact Library                                      -->
<!-- Asset   : artifact-lock.svg                           -->
<!-- Version : 1.0.0                                       -->
<!-- Status  : Construction                                -->
<!-- Order Design System                                   -->
<!-- ===================================================== -->
<svg xmlns="http://www.w3.org/2000/svg" viewBox="0 0 1000 1000" fill="none">
  <title>Artifact Lock</title>
  <desc>Mechanical locking mechanism that secures the
    Primordial Prism inside the containment system.</desc>
  <defs>
    <style>
      .artifact {
        fill: none;
      }

      .lock {
        fill: none;
        stroke: currentColor;
        stroke-width: 6;
        stroke-linecap: round;
        stroke-linejoin: round;
      }

      .latch {
        fill: none;
        stroke: currentColor;
        stroke-width: 6;
        stroke-linecap: round;
        stroke-linejoin: round;
      }

      .retainer {
        fill: none;
        stroke: currentColor;
        stroke-width: 4;
        opacity: .55;
        stroke-linecap: round;
        stroke-linejoin: round;
      }

      .keyway {
        fill: none;
        stroke: currentColor;
        stroke-width: 4;
        stroke-linecap: round;
        stroke-linejoin: round;
      }
    </style>
  </defs>
  <g class="artifact">
    <path class="lock" d="M455 390 A110 110 0 0 1 545 390"/>
    <path class="lock" d="M610 455 A110 110 0 0 1 610 545"/>
    <path class="lock" d="M545 610 A110 110 0 0 1 455 610"/>
    <path class="lock" d="M390 545 A110 110 0 0 1 390 455"/>
    <path class="latch" d="M500 392 L500 430"/>
    <path class="latch" d="M608 500 L570 500"/>
    <path class="latch" d="M500 608 L500 570"/>
    <path class="latch" d="M392 500 L430 500"/>
    <path class="retainer" d="M470 430 L488 448"/>
    <path class="retainer" d="M530 430 L512 448"/>
    <path class="retainer" d="M570 470 L552 488"/>
    <path class="retainer" d="M570 530 L552 512"/>
    <path class="retainer" d="M530 570 L512 552"/>
    <path class="retainer" d="M470 570 L488 552"/>
    <path class="retainer" d="M430 530 L448 512"/>
    <path class="retainer" d="M430 470 L448 488"/>
    <path class="keyway" d="M500 445 L500 465"/>
    <path class="keyway" d="M555 500 L535 500"/>
    <path class="keyway" d="M500 555 L500 535"/>
    <path class="keyway" d="M445 500 L465 500"/>
  </g>
</svg>